<svg width="20" height="20" viewBox="0 0 20 20" fill="none" xmlns="http://www.w3.org/2000/svg">
<path d="M15.8307 3.33464H14.1641V2.5013C14.1641 2.28029 14.0763 2.06833 13.92 1.91205C13.7637 1.75577 13.5517 1.66797 13.3307 1.66797C13.1097 1.66797 12.8978 1.75577 12.7415 1.91205C12.5852 2.06833 12.4974 2.28029 12.4974 2.5013V3.33464H7.4974V2.5013C7.4974 2.28029 7.4096 2.06833 7.25332 1.91205C7.09704 1.75577 6.88508 1.66797 6.66406 1.66797C6.44305 1.66797 6.23109 1.75577 6.07481 1.91205C5.91853 2.06833 5.83073 2.28029 5.83073 2.5013V3.33464H4.16406C3.50102 3.33464 2.86514 3.59803 2.3963 4.06687C1.92745 4.53571 1.66406 5.17159 1.66406 5.83464V15.8346C1.66406 16.4977 1.92745 17.1336 2.3963 17.6024C2.86514 18.0712 3.50102 18.3346 4.16406 18.3346H15.8307C16.4938 18.3346 17.1297 18.0712 17.5985 17.6024C18.0673 17.1336 18.3307 16.4977 18.3307 15.8346V5.83464C18.3307 5.17159 18.0673 4.53571 17.5985 4.06687C17.1297 3.59803 16.4938 3.33464 15.8307 3.33464ZM16.6641 15.8346C16.6641 16.0556 16.5763 16.2676 16.42 16.4239C16.2637 16.5802 16.0517 16.668 15.8307 16.668H4.16406C3.94305 16.668 3.73109 16.5802 3.57481 16.4239C3.41853 16.2676 3.33073 16.0556 3.33073 15.8346V10.0013H16.6641V15.8346ZM16.6641 8.33464H3.33073V5.83464C3.33073 5.61362 3.41853 5.40166 3.57481 5.24538C3.73109 5.0891 3.94305 5.0013 4.16406 5.0013H5.83073V5.83464C5.83073 6.05565 5.91853 6.26761 6.07481 6.42389C6.23109 6.58017 6.44305 6.66797 6.66406 6.66797C6.88508 6.66797 7.09704 6.58017 7.25332 6.42389C7.4096 6.26761 7.4974 6.05565 7.4974 5.83464V5.0013H12.4974V5.83464C12.4974 6.05565 12.5852 6.26761 12.7415 6.42389C12.8978 6.58017 13.1097 6.66797 13.3307 6.66797C13.5517 6.66797 13.7637 6.58017 13.92 6.42389C14.0763 6.26761 14.1641 6.05565 14.1641 5.83464V5.0013H15.8307C16.0517 5.0013 16.2637 5.0891 16.42 5.24538C16.5763 5.40166 16.6641 5.61362 16.6641 5.83464V8.33464Z" fill="#E6F6F4"/>
</svg>
